<?xml version="1.0" encoding="UTF-8" standalone="no"?>
<svg xmlns="http://www.w3.org/2000/svg" version="1.1" width="360" height="150">
 <metadata id="metadata8"/>
 <path d="m 70.5,140.5 80,-130 140,130" fill="none" stroke="#cccccc" stroke-width="4"/>
 <path d="m 73.5,140.49999 c 0,1.65686 -1.343145,3.00001 -3,3.00001 -1.656854,0 -3,-1.34315 -3,-3.00001 0,-1.65685 1.343146,-3 3,-3 1.656855,0 3,1.34315 3,3 z" fill="none" stroke="#000000"/>
 <path d="m 153.5,10.49998 c 0,1.65686 -1.34314,3.00001 -3,3.00001 -1.65685,0 -3,-1.34315 -3,-3.00001 0,-1.65685 1.34315,-3 3,-3 1.65686,0 3,1.34315 3,3 z" fill="none" stroke="#000000"/>
 <path d="m 293.5,140.49998 c 0,1.65686 -1.34314,3.00001 -3,3.00001 -1.65685,0 -3,-1.34315 -3,-3.00001 0,-1.65685 1.34315,-3 3,-3 1.65686,0 3,1.34315 3,3 z" fill="none" stroke="#000000"/>
 <path d="m 70.5,140.5 c 55.72052,-91.02401 131.49898,-82.17612 220,0" fill="none" stroke="#ff0000" stroke-width="4"/>
 <path d="m 185.5,43 -95,65" fill="none" stroke="#22ff22" stroke-width="2"/>
 <path d="m 93.5,107.99999 c 0,1.65686 -1.343145,3.00001 -3,3.00001 -1.656854,0 -3,-1.34315 -3,-3.00001 0,-1.65685 1.343146,-3 3,-3 1.656855,0 3,1.34315 3,3 z" fill="#22ff22"/>
 <path d="m 188.5,42.99999 c 0,1.65686 -1.34315,3.00001 -3,3.00001 -1.65686,0 -3,-1.34315 -3,-3.00001 0,-1.65685 1.34314,-3 3,-3 1.65685,0 3,1.34315 3,3 z" fill="#22ff22"/>
 <path d="M 118,91.499994 C 118,93.432994 116.43299,95 114.5,95 112.567,95 111,93.432994 111,91.499994 111,89.567006 112.567,88 114.5,88 c 1.93299,0 3.5,1.567006 3.5,3.499994 z"/>
 <text font-family="Linux Libertine O" font-size="18">
  <tspan x="77" y="145">P₀</tspan>
  <tspan x="96" y="112">Q₀</tspan>
  <tspan x="121" y="95">B</tspan>
  <tspan x="157" y="14">P₁</tspan>
  <tspan x="191" y="47">Q₁</tspan>
  <tspan x="297" y="145">P₂</tspan>
  <tspan x="162.13" y="145.2">t=.25</tspan>
 </text>
</svg>
